<svg id="Layer_1" data-name="Layer 1" xmlns="http://www.w3.org/2000/svg" viewBox="0 0 191.68 239.55"><defs><style>.cls-1{fill:none;stroke:#3c4051;stroke-linecap:round;stroke-linejoin:round;stroke-width:3px;}</style></defs><title>10</title><g id="_Group_" data-name="&lt;Group&gt;"><g id="_Group_2" data-name="&lt;Group&gt;"><path id="_Path_" data-name="&lt;Path&gt;" class="cls-1" d="M305.62,365.11a41.15,41.15,0,0,1-34.75,0l3-4a9.48,9.48,0,0,1,4.75-3.45,8.42,8.42,0,0,1,1.91-.35c3.81-.3,4.69,1.2,7.77,1.24s3.95-1.48,7.76-1.1a8.46,8.46,0,0,1,2.38.55,9.6,9.6,0,0,1,4.06,3.12Z" transform="translate(-190.82 -172.7)"/><path id="_Path_2" data-name="&lt;Path&gt;" class="cls-1" d="M275.08,375.75l4.34,3.36a12.49,12.49,0,0,0,4.66,1.33c.33,0,.68,0,1,0h6.54a11.82,11.82,0,0,0,1.91-.15,12.27,12.27,0,0,0,4.41-1.58l3.73-3" transform="translate(-190.82 -172.7)"/><path id="_Path_3" data-name="&lt;Path&gt;" class="cls-1" d="M298.24,335.11c-.27,1.13-1.12,1.38-4.43,3.69s-9.2,2.29-12.44,0-4.16-2.55-4.43-3.69" transform="translate(-190.82 -172.7)"/><g id="_Group_3" data-name="&lt;Group&gt;"><path id="_Path_4" data-name="&lt;Path&gt;" class="cls-1" d="M231.08,300.4a8.44,8.44,0,0,1,10.39.06,20.23,20.23,0,0,0,8.65,4.43,21.16,21.16,0,0,0,6.81.36c1.56-.14,2.73-.4,9-2.15l5.19-1.47" transform="translate(-190.82 -172.7)"/><path id="_Path_5" data-name="&lt;Path&gt;" class="cls-1" d="M242,308.68c1.31-3.36,5.32-4.13,6.37-4.3" transform="translate(-190.82 -172.7)"/></g><g id="_Group_4" data-name="&lt;Group&gt;"><path id="_Path_6" data-name="&lt;Path&gt;" class="cls-1" d="M343.62,300.4a8.44,8.44,0,0,0-10.39.06,20.23,20.23,0,0,1-8.65,4.43,21.16,21.16,0,0,1-6.81.36c-1.56-.14-2.73-.4-9-2.15l-5.19-1.47" transform="translate(-190.82 -172.7)"/><path id="_Path_7" data-name="&lt;Path&gt;" class="cls-1" d="M326.35,304.38c1.05.17,5.06.95,6.37,4.3" transform="translate(-190.82 -172.7)"/></g><path id="_Path_8" data-name="&lt;Path&gt;" class="cls-1" d="M342.24,370.09c-11.59,14.61-28,27.54-39.77,35.86a25.36,25.36,0,0,1-29.67,0c-17.93-12.65-46.43-35.91-52.74-59.6a201.07,201.07,0,0,1-6.89-53.83" transform="translate(-190.82 -172.7)"/><path id="_Path_9" data-name="&lt;Path&gt;" class="cls-1" d="M361.25,294.08a185.94,185.94,0,0,1-1.47,29.25" transform="translate(-190.82 -172.7)"/><path id="_Path_10" data-name="&lt;Path&gt;" class="cls-1" d="M364.22,245.78a77.45,77.45,0,0,0-7.29-29.05c-13.73-28.58-44-42.18-69.7-42.52-7.66-.1-38.22.67-58.82,25.67-13.95,16.92-17,37.2-18.38,46.82a117.33,117.33,0,0,0,0,34.16,105.79,105.79,0,0,1,8.58-23l.58-1.12c29.49-55.62,103.72-57,134.62-2.29q.94,1.67,1.84,3.4a105.33,105.33,0,0,1,8.58,23Z" transform="translate(-190.82 -172.7)"/><path id="_Path_11" data-name="&lt;Path&gt;" class="cls-1" d="M210.05,280.85c-2.56,5.87-8.24,9.7-12.14,14.78a28.84,28.84,0,0,0-.32,33.69c2.08,2.82,4.7,5.28,6.25,8.42a14.68,14.68,0,0,1-.83,14.19" transform="translate(-190.82 -172.7)"/><path id="_Path_12" data-name="&lt;Path&gt;" class="cls-1" d="M270.86,281s-4-5.27-13.18-7-20.65,0-20.65,0" transform="translate(-190.82 -172.7)"/><path id="_Path_13" data-name="&lt;Path&gt;" class="cls-1" d="M299,280.85s4-5.27,13.18-7,20.65,0,20.65,0" transform="translate(-190.82 -172.7)"/></g><path id="_Path_14" data-name="&lt;Path&gt;" class="cls-1" d="M381,344.68s-1,.42-2.62,1a67.18,67.18,0,0,1-7,1.92,84.56,84.56,0,0,1-8.36,1.43,9.83,9.83,0,0,0-8.58,8.83c-.29,3.06-.7,5.93-1.19,8.43a66.55,66.55,0,0,1-1.71,7c-.53,1.71-.92,2.67-.92,2.67s-.42-1-1-2.64a66.53,66.53,0,0,1-1.92-6.94,85.79,85.79,0,0,1-1.45-8.53,9.79,9.79,0,0,0-8.82-8.58c-3.14-.29-6.44-.65-8.41-1a61.66,61.66,0,0,1-7-1.71c-1.68-.5-2.67-.89-2.67-.89s1-.45,2.64-1a61.66,61.66,0,0,1,7-1.92c2.49-.57,5.34-1.07,8.4-1.45a9.83,9.83,0,0,0,8.56-8.83c.29-3.06.7-5.91,1.19-8.42a61.82,61.82,0,0,1,1.69-7c.53-1.71.92-2.67.92-2.67s.42,1,1,2.64a61.73,61.73,0,0,1,1.9,6.94c.58,2.54,1.08,5.44,1.47,8.56a9.79,9.79,0,0,0,8.83,8.57c3.14.28,6.43.64,8.4,1a67.22,67.22,0,0,1,7,1.71A26.27,26.27,0,0,1,381,344.68Z" transform="translate(-190.82 -172.7)"/></g></svg>