<svg id="Layer_1" data-name="Layer 1" xmlns="http://www.w3.org/2000/svg" viewBox="0 0 185 216.45"><defs><style>.cls-1{fill:none;stroke:#3c4051;stroke-linecap:round;stroke-linejoin:round;stroke-width:3px;}</style></defs><title>11</title><g id="_Group_" data-name="&lt;Group&gt;"><g id="_Group_2" data-name="&lt;Group&gt;"><path id="_Path_" data-name="&lt;Path&gt;" class="cls-1" d="M315.79,368.86a56.29,56.29,0,0,1-67.4-53.95c-.59-27.77,43.52-94.46,53.92-109.78,7.92,10.66,34.31,47,48.81,76.91" transform="translate(-208.5 -191.04)"/></g><g id="_Group_3" data-name="&lt;Group&gt;"><path id="_Path_2" data-name="&lt;Path&gt;" class="cls-1" d="M375.92,287.17a38.64,38.64,0,0,0,11.67-12.32,28.2,28.2,0,0,0,3.8-21.07,38.16,38.16,0,0,0-6.89-15.89,24,24,0,0,1-1.63,9.41c-2.59,6.52-6.79,8.14-8.22,13.61-.61,2.34-.87,6,1.35,11.09,0,0,5.75-.56,7.61-11.19" transform="translate(-208.5 -191.04)"/><path id="_Path_3" data-name="&lt;Path&gt;" class="cls-1" d="M364.77,285.91c-5.44-16.43-16-30.22-23.38-45.72-3.32-7-5.59-11.62-7-18.27a67.25,67.25,0,0,1,.81-29.38,38.25,38.25,0,0,0,7.92,15.68c7.37,8.57,15.58,9.5,18.31,17.3.84,2.38,1.46,6.21-.39,11.82a15.86,15.86,0,0,1-9.13-4.56,16.27,16.27,0,0,1-4.36-9" transform="translate(-208.5 -191.04)"/></g><g id="_Group_4" data-name="&lt;Group&gt;"><path id="_Path_4" data-name="&lt;Path&gt;" class="cls-1" d="M225.28,312.76A38.64,38.64,0,0,0,214,325.42a28.21,28.21,0,0,0-3.17,21.18,38.16,38.16,0,0,0,7.35,15.68,24,24,0,0,1,1.35-9.45c2.39-6.59,6.55-8.34,7.81-13.85.54-2.36.69-6-1.68-11,0,0-5.73.73-7.27,11.41" transform="translate(-208.5 -191.04)"/><path id="_Path_5" data-name="&lt;Path&gt;" class="cls-1" d="M240.76,297.88A68.71,68.71,0,0,0,238.18,321a61.09,61.09,0,0,0,2.06,12,55.56,55.56,0,0,0,8.91,18.52c4.39,5.84,10.21,10.36,14,16.69,4.22,7.08,8.35,18.72,5.6,37.76a38.17,38.17,0,0,0-15.1-21.1c-3.26-2.23-6.92-4-9.53-6.95a14.93,14.93,0,0,1-2.36-15.64,1.11,1.11,0,0,1,.31-.38c1.32-1.09,4.52.79,5.6,1.42,4.64,2.72,7,9.26,7.82,12" transform="translate(-208.5 -191.04)"/></g><g id="_Group_5" data-name="&lt;Group&gt;"><path id="_Path_6" data-name="&lt;Path&gt;" class="cls-1" d="M348.72,332.53a3.72,3.72,0,1,1-7.15-2.05,4.22,4.22,0,0,1,.34-.81,3.73,3.73,0,0,1,3.88-1.83,3,3,0,0,1,.38.09,3.72,3.72,0,0,1,2.55,4.6Z" transform="translate(-208.5 -191.04)"/><path id="_Path_7" data-name="&lt;Path&gt;" class="cls-1" d="M341.91,329.67c-6.28-4.13-18.75-15.41-10.16-36.3a25.43,25.43,0,0,1,11.21-.59c2.16.38,9.58,1.7,14,8a17.46,17.46,0,0,1,2.18,4.37" transform="translate(-208.5 -191.04)"/><path id="_Path_8" data-name="&lt;Path&gt;" class="cls-1" d="M345.79,327.84c1.75-7.3,8.14-22.87,30.71-21.85a25.35,25.35,0,0,1,4.34,10.34c.38,2.17,1.65,9.59-2.79,15.86a17,17,0,0,1-3.37,3.54" transform="translate(-208.5 -191.04)"/><path id="_Path_9" data-name="&lt;Path&gt;" class="cls-1" d="M348.83,331c7.48-.65,24.27.51,30.43,22.24a25.51,25.51,0,0,1-8.45,7.39c-1.93,1-8.58,4.59-15.93,2.34a17.36,17.36,0,0,1-4.42-2.08" transform="translate(-208.5 -191.04)"/><path id="_Path_10" data-name="&lt;Path&gt;" class="cls-1" d="M346.77,334.86c2.82,7,6.69,23.34-12.25,35.65a25.41,25.41,0,0,1-9.55-5.89c-1.56-1.55-6.93-6.84-7-14.52a16.85,16.85,0,0,1,.68-4.84" transform="translate(-208.5 -191.04)"/><path id="_Path_11" data-name="&lt;Path&gt;" class="cls-1" d="M323.67,310.81a17.25,17.25,0,0,0-4.79.89c-7.27,2.49-10.58,9.26-11.55,11.23a25.39,25.39,0,0,0-2.53,10.93c17.7,14,32,5.14,37.69.24" transform="translate(-208.5 -191.04)"/></g></g></svg>