<svg id="Layer_1" data-name="Layer 1" xmlns="http://www.w3.org/2000/svg" viewBox="0 0 232.76 210.5"><defs><style>.cls-1{fill:none;stroke:#702c8e;stroke-linecap:round;stroke-linejoin:round;stroke-width:6px;}</style></defs><title>12</title><path id="_Path_" fill="#702c8e" data-name="&lt;Path&gt;" class="cls-1" d="M366.35,319.83c1,1.58,1.12,1.79,2.17,3.63,2.36,4.11,4.41,8.42,4.41,11a11,11,0,1,1-22,0c0-5.44,8.92-18.32,11-21.27Z" transform="translate(-202.74 -188.75)"/><g id="_Group_" data-name="&lt;Group&gt;"><g id="_Group_2" data-name="&lt;Group&gt;"><g id="_Group_3" data-name="&lt;Group&gt;"><path id="_Compound_Path_" data-name="&lt;Compound Path&gt;" class="cls-1" d="M397.27,342.24a37.53,37.53,0,0,0-2-28.76,37.23,37.23,0,0,0-21.36-18.63,37.37,37.37,0,0,0-40,10.63,36.94,36.94,0,0,0-8.68,17.81,35.45,35.45,0,0,0-.53,3.85,37.34,37.34,0,0,0,65.22,27.77,37.5,37.5,0,0,0,2.69-3.42" transform="translate(-202.74 -188.75)"/><g id="_Group_4" data-name="&lt;Group&gt;"><path id="_Path_2" data-name="&lt;Path&gt;" class="cls-1" d="M402.58,357.42a2.07,2.07,0,0,1,2.93-.18h0l9.09,8.05,7,6.22L432,380.67c2.93,2.6,2.72,8-.73,12.23-.23.3-.49.6-.76.88l-.11.12c-3.79,4-9.16,5-12.14,2.36L408,387.17l-7-6.23-9.09-8.06-.08-.07a2.07,2.07,0,0,1-.18-2.91l.91-1,8.9-10.12Z" transform="translate(-202.74 -188.75)"/><line id="_Path_3" data-name="&lt;Path&gt;" class="cls-1" x1="190.08" y1="179.38" x2="185.56" y2="175.41"/><polyline id="_Path_4" data-name="&lt;Path&gt;" class="cls-1" points="198.38 170.36 198.36 170.35 189.79 162.83"/></g></g></g><g id="_Group_5" data-name="&lt;Group&gt;"><path id="_Path_5" data-name="&lt;Path&gt;" class="cls-1" d="M317.13,339.63a42.2,42.2,0,0,1-35.64,0l3.11-4.13a9.72,9.72,0,0,1,4.87-3.54,8.63,8.63,0,0,1,2-.35c3.9-.31,4.8,1.23,8,1.27s4-1.51,8-1.13a8.67,8.67,0,0,1,2.44.56,9.85,9.85,0,0,1,4.16,3.2Z" transform="translate(-202.74 -188.75)"/><path id="_Path_6" data-name="&lt;Path&gt;" class="cls-1" d="M285.82,350.54l4.45,3.44a12.8,12.8,0,0,0,4.78,1.36c.34,0,.7,0,1.05,0h6.71a12.11,12.11,0,0,0,2-.16,12.58,12.58,0,0,0,4.53-1.62l3.83-3.07" transform="translate(-202.74 -188.75)"/><path id="_Path_7" data-name="&lt;Path&gt;" class="cls-1" d="M309.56,308.87c-.27,1.16-1.14,1.42-4.54,3.78s-9.43,2.34-12.76,0-4.27-2.62-4.54-3.78" transform="translate(-202.74 -188.75)"/><g id="_Group_6" data-name="&lt;Group&gt;"><path id="_Path_8" data-name="&lt;Path&gt;" class="cls-1" d="M240.71,273.28a8.66,8.66,0,0,1,10.66.06,20.75,20.75,0,0,0,8.87,4.54,21.7,21.7,0,0,0,7,.37c1.59-.14,2.8-.41,9.19-2.21l5.32-1.51" transform="translate(-202.74 -188.75)"/><path id="_Path_9" data-name="&lt;Path&gt;" class="cls-1" d="M251.87,281.77c1.35-3.44,5.45-4.24,6.53-4.41" transform="translate(-202.74 -188.75)"/></g><g id="_Group_7" data-name="&lt;Group&gt;"><path id="_Path_10" data-name="&lt;Path&gt;" class="cls-1" d="M356.09,273.28a8.66,8.66,0,0,0-10.66.06,20.75,20.75,0,0,1-8.87,4.54,21.69,21.69,0,0,1-7,.37c-1.6-.14-2.8-.41-9.19-2.21l-5.32-1.51" transform="translate(-202.74 -188.75)"/><path id="_Path_11" data-name="&lt;Path&gt;" class="cls-1" d="M338.39,277.36c1.08.18,5.19,1,6.53,4.41" transform="translate(-202.74 -188.75)"/></g><path id="_Path_12" data-name="&lt;Path&gt;" class="cls-1" d="M222.42,273.94a210.9,210.9,0,0,0,7,46.45c6.47,24.3,35.7,48.15,54.08,61.12a26,26,0,0,0,30.42,0c5.66-4,12.34-9,19.07-14.76" transform="translate(-202.74 -188.75)"/><path id="_Path_13" data-name="&lt;Path&gt;" class="cls-1" d="M375.1,273q-.12,4.42-.45,8.81" transform="translate(-202.74 -188.75)"/><path id="_Path_14" data-name="&lt;Path&gt;" class="cls-1" d="M222.42,272.43c-2.62,6-8.45,9.94-12.45,15.16a29.58,29.58,0,0,0-.33,34.54c2.13,2.89,4.82,5.41,6.41,8.63a15.06,15.06,0,0,1-.85,14.55" transform="translate(-202.74 -188.75)"/><path id="_Path_15" data-name="&lt;Path&gt;" class="cls-1" d="M281.5,253.34s-4.06-5.41-13.52-7.21-21.18,0-21.18,0" transform="translate(-202.74 -188.75)"/><path id="_Path_16" data-name="&lt;Path&gt;" class="cls-1" d="M310.33,253.24s4.06-5.41,13.52-7.21S345,246,345,246" transform="translate(-202.74 -188.75)"/><g id="_Group_8" data-name="&lt;Group&gt;"><path id="_Path_17" data-name="&lt;Path&gt;" class="cls-1" d="M287.5,199.7c-10.22,3.82-18.14,8.34-23.5,12.72-28.67,23.33-34.65,43.66-41.19,61.71,0,0,0,0-.08,0" transform="translate(-202.74 -188.75)"/><path id="_Path_18" data-name="&lt;Path&gt;" class="cls-1" d="M295.47,190.25c10.67,5.81,21.42,11.52,31.46,18.25,23.8,15.95,38.36,37.92,48.17,64.49" transform="translate(-202.74 -188.75)"/></g></g></g></svg>