<svg id="Layer_1" data-name="Layer 1" xmlns="http://www.w3.org/2000/svg" viewBox="0 0 182 152.88"><title>10</title><path d="M233.48,229A25.48,25.48,0,1,0,259,254.48,25.48,25.48,0,0,0,233.48,229Zm0,43.68a18.2,18.2,0,1,1,18.2-18.2A18.22,18.22,0,0,1,233.48,272.68Z" transform="translate(-208 -229)"/><path d="M284.44,374.6a32.69,32.69,0,0,1-5.12-65,62.71,62.71,0,0,1-2.79-7,40,40,0,1,0,47.81,41.85,65.43,65.43,0,0,1-7.24-1.72A32.75,32.75,0,0,1,284.44,374.6Z" transform="translate(-208 -229)"/><path d="M259,341.84a3.64,3.64,0,1,0,7.28,0,18.22,18.22,0,0,1,18.2-18.2,3.59,3.59,0,0,0,2.76-1.34,60.12,60.12,0,0,1-4.11-5.8A25.46,25.46,0,0,0,259,341.84Z" transform="translate(-208 -229)"/><path d="M335.4,229A54.6,54.6,0,1,0,390,283.6,54.59,54.59,0,0,0,335.4,229Zm0,101.92a47.32,47.32,0,1,1,47.32-47.32A47.37,47.37,0,0,1,335.4,330.92Z" transform="translate(-208 -229)"/><path d="M299,287.24a3.64,3.64,0,0,1-3.64-3.64,40.08,40.08,0,0,1,40-40,3.64,3.64,0,1,1,0,7.28,32.8,32.8,0,0,0-32.76,32.76A3.64,3.64,0,0,1,299,287.24Z" transform="translate(-208 -229)"/></svg>