<svg id="Layer_1" data-name="Layer 1" xmlns="http://www.w3.org/2000/svg" viewBox="0 0 209 179.13"><defs><style>.cls-1{fill:#3c3c3b;}</style></defs><title>6</title><path class="cls-1" d="M267.32,308v-3.13L230.79,244l-36.55,60.82V308a36.54,36.54,0,1,0,73.08,0Zm-36.52-51.46L260,304.86H201.55Zm0,81.74a30.34,30.34,0,0,1-30.14-27.17H260.9A30.32,30.32,0,0,1,230.79,338.28Z" transform="translate(-194.24 -207)"/><path class="cls-1" d="M366.83,244l-36.67,60.83V308a36.54,36.54,0,1,0,73.08,0v-3.13Zm0,12.51,29.11,48.32H337.47Zm0,81.74a30.42,30.42,0,0,1-30.25-27.17h60.25A30.26,30.26,0,0,1,366.82,338.28Z" transform="translate(-194.24 -207)"/><path class="cls-1" d="M301.93,348.4v-100a14.57,14.57,0,1,0-6.26,0v100A48.78,48.78,0,0,0,252.24,382l-1.32,4.09h95.74l-1.35-4.1A48.9,48.9,0,0,0,301.93,348.4ZM290.46,234.24a8.32,8.32,0,1,1,16.63,0,8.31,8.31,0,0,1-16.63,0Zm-30.7,145.64a42.7,42.7,0,0,1,78,0Z" transform="translate(-194.24 -207)"/><path class="cls-1" d="M277.42,237.37v-3.13a20.95,20.95,0,1,1,41.89,0v3.13h47L387.77,216l-4.41-4.43-19.63,19.57H325.39a27.2,27.2,0,0,0-54.05,0H233l-18.83-18.75-4.42,4.44,20.67,20.57Z" transform="translate(-194.24 -207)"/></svg>