<svg id="Layer_1" data-name="Layer 1" xmlns="http://www.w3.org/2000/svg" viewBox="0 0 279.28 239.52"><defs><style>.cls-1{fill:none;stroke:#3c4051;stroke-linecap:round;stroke-linejoin:round;stroke-width:3px;}</style></defs><title>7</title><g id="_Group_" data-name="&lt;Group&gt;"><g id="_Group_2" data-name="&lt;Group&gt;"><path id="_Path_" data-name="&lt;Path&gt;" class="cls-1" d="M309.83,354.59a50.88,50.88,0,0,1-43,0l3.75-5a11.72,11.72,0,0,1,5.87-4.26,10.41,10.41,0,0,1,2.36-.43c4.71-.38,5.79,1.48,9.6,1.54s4.88-1.82,9.6-1.36a10.46,10.46,0,0,1,2.94.68,11.87,11.87,0,0,1,5,3.86Z" transform="translate(-172.22 -172.98)"/><path id="_Path_2" data-name="&lt;Path&gt;" class="cls-1" d="M272.07,367.73l5.36,4.15a15.43,15.43,0,0,0,5.76,1.64c.41,0,.85.05,1.27.05h8.09a14.6,14.6,0,0,0,2.36-.19,15.17,15.17,0,0,0,5.46-2l4.61-3.7" transform="translate(-172.22 -172.98)"/><path id="_Path_3" data-name="&lt;Path&gt;" class="cls-1" d="M300.7,317.5c-.33,1.4-1.38,1.71-5.48,4.56s-11.37,2.83-15.38,0-5.15-3.15-5.48-4.56" transform="translate(-172.22 -172.98)"/><g id="_Group_3" data-name="&lt;Group&gt;"><path id="_Path_4" data-name="&lt;Path&gt;" class="cls-1" d="M217.68,274.59a10.44,10.44,0,0,1,12.85.07,25,25,0,0,0,10.7,5.47,26.16,26.16,0,0,0,8.43.44c1.92-.17,3.38-.49,11.09-2.66l6.41-1.82" transform="translate(-172.22 -172.98)"/><path id="_Path_5" data-name="&lt;Path&gt;" class="cls-1" d="M231.15,284.82c1.62-4.15,6.57-5.11,7.88-5.32" transform="translate(-172.22 -172.98)"/></g><g id="_Group_4" data-name="&lt;Group&gt;"><path id="_Path_6" data-name="&lt;Path&gt;" class="cls-1" d="M356.8,274.59a10.44,10.44,0,0,0-12.85.07,25,25,0,0,1-10.7,5.47,26.15,26.15,0,0,1-8.42.44c-1.92-.17-3.38-.49-11.09-2.66l-6.41-1.82" transform="translate(-172.22 -172.98)"/><path id="_Path_7" data-name="&lt;Path&gt;" class="cls-1" d="M335.46,279.5c1.3.21,6.25,1.17,7.88,5.32" transform="translate(-172.22 -172.98)"/></g><path id="_Path_8" data-name="&lt;Path&gt;" class="cls-1" d="M195.64,275.38a254.28,254.28,0,0,0,8.42,56c7.8,29.29,43,58.06,65.2,73.69a31.37,31.37,0,0,0,36.67,0A308,308,0,0,0,333,383.7l20.52-18.93" transform="translate(-172.22 -172.98)"/><path id="_Path_9" data-name="&lt;Path&gt;" class="cls-1" d="M379.71,274.24c-.12,4.57-.39,9.14-.79,13.66l-3.28,16.93" transform="translate(-172.22 -172.98)"/><path id="_Path_10" data-name="&lt;Path&gt;" class="cls-1" d="M195.64,273.56c-3.16,7.26-10.19,12-15,18.27-9.06,11.82-9.23,29.66-.4,41.65C182.8,337,186,340,188,343.89a18.15,18.15,0,0,1-1,17.54" transform="translate(-172.22 -172.98)"/><path id="_Path_11" data-name="&lt;Path&gt;" class="cls-1" d="M266.86,250.54s-4.89-6.52-16.3-8.69-25.53,0-25.53,0" transform="translate(-172.22 -172.98)"/><path id="_Path_12" data-name="&lt;Path&gt;" class="cls-1" d="M301.63,250.42s4.89-6.52,16.3-8.69,25.53,0,25.53,0" transform="translate(-172.22 -172.98)"/><g id="_Group_5" data-name="&lt;Group&gt;"><path id="_Path_13" data-name="&lt;Path&gt;" class="cls-1" d="M274.1,185.87c-12.32,4.6-21.87,10.05-28.33,15.33-34.56,28.13-41.77,52.64-49.66,74.41,0,0,0,0-.1,0" transform="translate(-172.22 -172.98)"/><path id="_Path_14" data-name="&lt;Path&gt;" class="cls-1" d="M283.71,174.48c12.86,7,25.83,13.89,37.93,22,28.69,19.23,46.25,45.73,58.08,77.76" transform="translate(-172.22 -172.98)"/></g></g><g id="_Group_6" data-name="&lt;Group&gt;"><g id="_Group_7" data-name="&lt;Group&gt;"><g id="_Group_8" data-name="&lt;Group&gt;"><path id="_Path_15" data-name="&lt;Path&gt;" class="cls-1" d="M360.83,321.88a17.19,17.19,0,0,0-12.46-7.15l-25.83-2.38v8.92l7.69,2.72-7.69,3.7V335l4.72,2.76-4.43,1.76v12.26l25.6-1.45a17.09,17.09,0,0,0,12.41-7.22" transform="translate(-172.22 -172.98)"/><line id="_Path_16" data-name="&lt;Path&gt;" class="cls-1" x1="158.02" y1="150.96" x2="175.48" y2="150.96"/><line id="_Path_17" data-name="&lt;Path&gt;" class="cls-1" x1="155.05" y1="164.82" x2="163.61" y2="164.82"/></g><rect id="_Rectangle_" data-name="&lt;Rectangle&gt;" class="cls-1" x="358.57" y="317.28" width="34.16" height="29.62" transform="translate(-128.66 534.76) rotate(-90)"/><rect id="_Rectangle_2" data-name="&lt;Rectangle&gt;" class="cls-1" x="383.88" y="325.82" width="25.7" height="12.55" transform="translate(-107.58 555.84) rotate(-90)"/><line id="_Path_18" data-name="&lt;Path&gt;" class="cls-1" x1="230.79" y1="159.11" x2="241.06" y2="159.11"/></g><polyline id="_Path_19" data-name="&lt;Path&gt;" class="cls-1" points="277.78 131.85 241.06 146.11 241.06 171.8 277.78 186.37"/></g></g></svg>