<svg id="Layer_1" data-name="Layer 1" xmlns="http://www.w3.org/2000/svg" viewBox="0 0 251.39 238.46"><defs><style>.cls-1{fill:none;stroke:#3c4051;stroke-linecap:round;stroke-linejoin:round;stroke-width:3px;}</style></defs><title>8</title><g id="_Group_" data-name="&lt;Group&gt;"><g id="_Group_2" data-name="&lt;Group&gt;"><path id="_Path_" data-name="&lt;Path&gt;" class="cls-1" d="M310.38,354.3a50.65,50.65,0,0,1-42.77,0l3.73-5a11.66,11.66,0,0,1,5.84-4.24,10.37,10.37,0,0,1,2.35-.43c4.69-.37,5.77,1.47,9.56,1.53s4.86-1.82,9.55-1.36a10.41,10.41,0,0,1,2.92.67,11.82,11.82,0,0,1,5,3.84Z" transform="translate(-173.38 -173.5)"/><path id="_Path_2" data-name="&lt;Path&gt;" class="cls-1" d="M272.79,367.39l5.34,4.13a15.37,15.37,0,0,0,5.74,1.63c.41,0,.84.05,1.26.05h8a14.55,14.55,0,0,0,2.35-.19,15.1,15.1,0,0,0,5.43-1.94l4.59-3.68" transform="translate(-173.38 -173.5)"/><path id="_Path_3" data-name="&lt;Path&gt;" class="cls-1" d="M301.29,317.38c-.33,1.4-1.37,1.7-5.45,4.54s-11.32,2.81-15.31,0-5.13-3.14-5.45-4.54" transform="translate(-173.38 -173.5)"/><g id="_Group_3" data-name="&lt;Group&gt;"><path id="_Path_4" data-name="&lt;Path&gt;" class="cls-1" d="M218.65,274.66a10.39,10.39,0,0,1,12.79.07,24.9,24.9,0,0,0,10.65,5.45,26,26,0,0,0,8.39.44c1.91-.17,3.36-.49,11-2.65l6.38-1.81" transform="translate(-173.38 -173.5)"/><path id="_Path_5" data-name="&lt;Path&gt;" class="cls-1" d="M232.05,284.85c1.62-4.13,6.54-5.09,7.84-5.3" transform="translate(-173.38 -173.5)"/></g><g id="_Group_4" data-name="&lt;Group&gt;"><path id="_Path_6" data-name="&lt;Path&gt;" class="cls-1" d="M357.14,274.66a10.39,10.39,0,0,0-12.79.07,24.9,24.9,0,0,1-10.65,5.45,26,26,0,0,1-8.39.44c-1.91-.17-3.36-.49-11-2.65l-6.38-1.81" transform="translate(-173.38 -173.5)"/><path id="_Path_7" data-name="&lt;Path&gt;" class="cls-1" d="M335.9,279.55c1.3.21,6.22,1.17,7.84,5.3" transform="translate(-173.38 -173.5)"/></g><path id="_Path_8" data-name="&lt;Path&gt;" class="cls-1" d="M196.7,275.45a253.14,253.14,0,0,0,8.38,55.76c7.76,29.16,42.85,57.8,64.91,73.36a31.23,31.23,0,0,0,36.51,0,306.64,306.64,0,0,0,27-21.29" transform="translate(-173.38 -173.5)"/><path id="_Path_9" data-name="&lt;Path&gt;" class="cls-1" d="M380,274.31a240.4,240.4,0,0,1-3.52,34.47" transform="translate(-173.38 -173.5)"/><path id="_Path_10" data-name="&lt;Path&gt;" class="cls-1" d="M196.7,273.64c-3.15,7.23-10.14,11.94-14.94,18.19-9,11.77-9.19,29.53-.39,41.46,2.56,3.47,5.78,6.49,7.69,10.36a18.07,18.07,0,0,1-1,17.46" transform="translate(-173.38 -173.5)"/><path id="_Path_11" data-name="&lt;Path&gt;" class="cls-1" d="M267.61,250.72s-4.87-6.49-16.22-8.65-25.42,0-25.42,0" transform="translate(-173.38 -173.5)"/><path id="_Path_12" data-name="&lt;Path&gt;" class="cls-1" d="M302.22,250.6s4.87-6.49,16.22-8.65,25.42,0,25.42,0" transform="translate(-173.38 -173.5)"/><g id="_Group_5" data-name="&lt;Group&gt;"><path id="_Path_13" data-name="&lt;Path&gt;" class="cls-1" d="M274.82,186.34c-12.27,4.58-21.77,10-28.21,15.27-34.41,28-41.59,52.4-49.44,74.07,0,0,0,0-.1,0" transform="translate(-173.38 -173.5)"/><path id="_Path_14" data-name="&lt;Path&gt;" class="cls-1" d="M284.38,175c12.8,7,25.71,13.83,37.76,21.9,28.57,19.14,46,45.52,57.82,77.41" transform="translate(-173.38 -173.5)"/></g></g><g id="_Group_6" data-name="&lt;Group&gt;"><circle id="_Path_15" data-name="&lt;Path&gt;" class="cls-1" cx="378.67" cy="375.07" r="17.01" transform="translate(-319.35 295.46) rotate(-54.87)"/><g id="_Group_7" data-name="&lt;Group&gt;"><circle id="_Path_16" data-name="&lt;Path&gt;" class="cls-1" cx="412.57" cy="327.01" r="10.7" transform="matrix(0.58, -0.82, 0.82, 0.58, -265.66, 302.77)"/></g><circle id="_Path_17" data-name="&lt;Path&gt;" class="cls-1" cx="345.86" cy="320.79" r="22.63" transform="translate(-288.89 245.57) rotate(-54.87)"/><path id="_Path_18" data-name="&lt;Path&gt;" class="cls-1" d="M376.43,322.46a13.92,13.92,0,1,1-7.94,20.15" transform="translate(-173.38 -173.5)"/><circle id="_Path_19" data-name="&lt;Path&gt;" class="cls-1" cx="343.38" cy="365.18" r="9.89" transform="translate(-326.25 262.39) rotate(-54.87)"/><circle id="_Path_20" data-name="&lt;Path&gt;" class="cls-1" cx="397.84" cy="299.47" r="8.14" transform="translate(-249.39 279.03) rotate(-54.87)"/><path id="_Path_21" data-name="&lt;Path&gt;" class="cls-1" d="M403.51,358.31a9.89,9.89,0,1,1,6.16,9.9" transform="translate(-173.38 -173.5)"/></g></g></svg>