<svg id="Layer_1" data-name="Layer 1" xmlns="http://www.w3.org/2000/svg" viewBox="0 0 230.13 239.2"><defs><style>.cls-1{fill:none;stroke:#3c4051;stroke-linecap:round;stroke-linejoin:round;stroke-width:3px;}</style></defs><title>9</title><g id="_Group_" data-name="&lt;Group&gt;"><g id="_Group_2" data-name="&lt;Group&gt;"><polygon id="_Path_" data-name="&lt;Path&gt;" class="cls-1" points="213.85 172.13 213.85 184.01 202.31 184.01 202.31 195.55 190.44 195.55 190.44 184.01 178.9 184.01 178.9 172.13 190.44 172.13 190.44 160.58 202.31 160.58 202.31 172.13 213.85 172.13"/></g><g id="_Group_3" data-name="&lt;Group&gt;"><path id="_Path_2" data-name="&lt;Path&gt;" class="cls-1" d="M309.8,353.72a50.81,50.81,0,0,1-42.91,0l3.74-5a11.7,11.7,0,0,1,5.86-4.26,10.4,10.4,0,0,1,2.36-.43c4.7-.37,5.78,1.48,9.59,1.54s4.87-1.82,9.58-1.36a10.45,10.45,0,0,1,2.93.68,11.86,11.86,0,0,1,5,3.85Z" transform="translate(-172.37 -172.35)"/><path id="_Path_3" data-name="&lt;Path&gt;" class="cls-1" d="M272.09,366.85l5.35,4.14a15.42,15.42,0,0,0,5.76,1.64c.41,0,.84.05,1.27.05h8.07a14.61,14.61,0,0,0,2.36-.19,15.15,15.15,0,0,0,5.45-1.95l4.61-3.7" transform="translate(-172.37 -172.35)"/><path id="_Path_4" data-name="&lt;Path&gt;" class="cls-1" d="M300.68,316.68c-.33,1.4-1.38,1.71-5.47,4.55s-11.36,2.82-15.36,0-5.14-3.15-5.47-4.55" transform="translate(-172.37 -172.35)"/><g id="_Group_4" data-name="&lt;Group&gt;"><path id="_Path_5" data-name="&lt;Path&gt;" class="cls-1" d="M217.78,273.83a10.42,10.42,0,0,1,12.83.07,25,25,0,0,0,10.68,5.46,26.12,26.12,0,0,0,8.41.44c1.92-.17,3.37-.49,11.07-2.66l6.4-1.82" transform="translate(-172.37 -172.35)"/><path id="_Path_6" data-name="&lt;Path&gt;" class="cls-1" d="M231.22,284c1.62-4.14,6.56-5.1,7.86-5.31" transform="translate(-172.37 -172.35)"/></g><g id="_Group_5" data-name="&lt;Group&gt;"><path id="_Path_7" data-name="&lt;Path&gt;" class="cls-1" d="M356.71,273.83a10.42,10.42,0,0,0-12.83.07,25,25,0,0,1-10.68,5.46,26.12,26.12,0,0,1-8.41.44c-1.92-.17-3.37-.49-11.07-2.66l-6.4-1.82" transform="translate(-172.37 -172.35)"/><path id="_Path_8" data-name="&lt;Path&gt;" class="cls-1" d="M335.4,278.73c1.3.21,6.24,1.17,7.86,5.31" transform="translate(-172.37 -172.35)"/></g><path id="_Path_9" data-name="&lt;Path&gt;" class="cls-1" d="M195.76,274.62a253.93,253.93,0,0,0,8.4,55.93c7.79,29.25,43,58,65.12,73.59a31.33,31.33,0,0,0,36.63,0A307.6,307.6,0,0,0,333,382.79" transform="translate(-172.37 -172.35)"/><path id="_Path_10" data-name="&lt;Path&gt;" class="cls-1" d="M379.59,273.48c-.12,4.57-.39,9.12-.79,13.64" transform="translate(-172.37 -172.35)"/><path id="_Path_11" data-name="&lt;Path&gt;" class="cls-1" d="M195.76,272.8c-3.16,7.25-10.17,12-15,18.25-9.05,11.8-9.22,29.62-.4,41.59,2.56,3.48,5.8,6.51,7.71,10.39a18.13,18.13,0,0,1-1,17.52" transform="translate(-172.37 -172.35)"/><path id="_Path_12" data-name="&lt;Path&gt;" class="cls-1" d="M266.89,249.81s-4.88-6.51-16.28-8.68-25.5,0-25.5,0" transform="translate(-172.37 -172.35)"/><path id="_Path_13" data-name="&lt;Path&gt;" class="cls-1" d="M301.61,249.69s4.88-6.51,16.28-8.68,25.5,0,25.5,0" transform="translate(-172.37 -172.35)"/><g id="_Group_6" data-name="&lt;Group&gt;"><path id="_Path_14" data-name="&lt;Path&gt;" class="cls-1" d="M274.12,185.23c-12.31,4.6-21.84,10-28.3,15.31-34.52,28.09-41.72,52.57-49.59,74.31,0,0,0,0-.1,0" transform="translate(-172.37 -172.35)"/><path id="_Path_15" data-name="&lt;Path&gt;" class="cls-1" d="M283.72,173.85c12.84,7,25.79,13.87,37.88,22,28.66,19.2,46.19,45.66,58,77.65" transform="translate(-172.37 -172.35)"/></g></g><path id="_Path_16" data-name="&lt;Path&gt;" class="cls-1" d="M381.39,310.51c3.06,4.72,3.33,5.35,6.47,10.82,7,12.25,13.13,25.09,13.13,32.86a32.86,32.86,0,1,1-65.71,0c0-16.22,26.59-54.61,32.86-63.42Z" transform="translate(-172.37 -172.35)"/></g></svg>