<svg id="Layer_1" data-name="Layer 1" xmlns="http://www.w3.org/2000/svg" xmlns:xlink="http://www.w3.org/1999/xlink" width="42.17" height="41.62" viewBox="0 0 42.17 41.62">
  <defs>
    <style>
      .cls-1 {
        fill: none;
      }

      .cls-2 {
        clip-path: url(#clip-path);
      }

      .cls-3 {
        clip-path: url(#clip-path-2);
      }

      .cls-4 {
        fill: #6b1485;
      }

      .cls-5 {
        clip-path: url(#clip-path-3);
      }

      .cls-6 {
        fill: #dbdbdb;
      }
    </style>
    <clipPath id="clip-path" transform="translate(4.59 4.31)">
      <ellipse class="cls-1" cx="16.71" cy="16.71" rx="15.3" ry="15.04"/>
    </clipPath>
    <clipPath id="clip-path-2" transform="translate(4.59 4.31)">
      <rect class="cls-1" x="0.41" y="0.69" width="169" height="32"/>
    </clipPath>
    <clipPath id="clip-path-3" transform="translate(4.59 4.31)">
      <path class="cls-1" d="M32.58,15.37v2.26c0,0.2-.08.4-0.1,0.6A15.9,15.9,0,0,1,20.22,31.92c-0.77.18-1.55,0.27-2.32,0.39H15.1l-0.31-.05a16,16,0,0,1-9.55-4.43,15.42,15.42,0,0,1-4.6-8.6c-0.09-.49-0.15-1-0.23-1.48V15.37c0-.11,0-0.22.06-0.33a14.76,14.76,0,0,1,1-4.26A15.86,15.86,0,0,1,13.66,1C14.34,0.85,15,.78,15.72.69h1.49a15.76,15.76,0,0,0,1.63.22A16,16,0,0,1,32.22,13.26c0.14,0.7.24,1.41,0.36,2.11m-23-4.66a8.12,8.12,0,0,0,.06,1,6.94,6.94,0,0,0,7.27,6,4.13,4.13,0,0,0,3.69-2.41,3.3,3.3,0,0,0-.56-3.7,0.41,0.41,0,0,0-.45-0.19,0.35,0.35,0,0,0-.17.42,2,2,0,0,1-1.63,2,3.38,3.38,0,0,1-3.61-1.86A2.61,2.61,0,0,1,15,8.63a3.92,3.92,0,0,1,2.3-.72,6.19,6.19,0,0,1,6.54,6.64A5.31,5.31,0,0,1,20.9,19a7.82,7.82,0,0,1-4.73.81,11.27,11.27,0,0,1-5.43-2.35A8.74,8.74,0,0,1,8.4,5.89a3.1,3.1,0,0,0,.2-0.41,0.21,0.21,0,0,0,0-.23,0.22,0.22,0,0,0-.26,0,1.84,1.84,0,0,0-.47.29,13.72,13.72,0,0,0-5.08,7.57,12.13,12.13,0,0,0-.43,3.36,0.48,0.48,0,0,0,.22.47A0.42,0.42,0,0,0,3,16.82a3.16,3.16,0,0,1,1.06-.44,5.86,5.86,0,0,1,2.71.09,9.88,9.88,0,0,1,3.4,1.74c1.47,1,2.85,2.21,4.4,3.15a10.84,10.84,0,0,0,6.67,1.77,8.57,8.57,0,0,0,7.07-4.22,9.27,9.27,0,0,0,.76-8A11.37,11.37,0,0,0,22,3.79a10,10,0,0,0-7.15-.21A7.42,7.42,0,0,0,9.57,10.7m9,19.47a2,2,0,0,0,1.48-.48,0.6,0.6,0,0,0,.33-0.61,0.52,0.52,0,0,0-.62-0.29l-0.15,0a0.84,0.84,0,0,1-.5-1.46,1.83,1.83,0,0,1,2.45-.15,1.69,1.69,0,0,1,.61,1.38c0,0.47.26,0.62,0.69,0.41l0.52-.28a14,14,0,0,0,5.51-5.47,2.36,2.36,0,0,0,.26-0.65,0.22,0.22,0,0,0,0-.25,0.19,0.19,0,0,0-.25.07l-0.48.44a9.36,9.36,0,0,1-2.76,1.91,10.89,10.89,0,0,1-11-1,34.16,34.16,0,0,1-3.57-2.94A14.16,14.16,0,0,0,7.69,18.4,4.77,4.77,0,0,0,5,17.95a2.19,2.19,0,0,0-2,2.68,3.85,3.85,0,0,0,3.07,2.85,1.88,1.88,0,0,0,1.59-.35A0.6,0.6,0,0,0,8,22.45a0.56,0.56,0,0,0-.69-0.27,1,1,0,0,1-.37,0,0.85,0.85,0,0,1-.44-1.48,1.59,1.59,0,0,1,1.08-.49,3,3,0,0,1,1.81.46A8.58,8.58,0,0,1,12,23.42c0.73,1.1,1.29,2.3,2,3.4a9.27,9.27,0,0,0,2.63,2.74,3.4,3.4,0,0,0,1.94.61M5.89,24.79a0.45,0.45,0,0,0-.48.14,0.39,0.39,0,0,0,.13.44l0,0a14.11,14.11,0,0,0,6.28,4.28,6,6,0,0,0,1.26.34,0.35,0.35,0,0,0,.38-0.16,0.29,0.29,0,0,0-.1-0.35,11.64,11.64,0,0,1-2-3.3,26.75,26.75,0,0,0-1.24-2.77,0.34,0.34,0,0,0-.66,0,2.25,2.25,0,0,1-2.05,1.39,6.73,6.73,0,0,1-1.57-.08"/>
    </clipPath>
  </defs>
  <title>logo-mobile</title>
  <g class="cls-2">
    <g class="cls-3">
      <rect class="cls-4" x="1" y="0.98" width="40.6" height="40.08"/>
    </g>
    <g class="cls-5">
      <g class="cls-3">
        <rect class="cls-6" width="42.17" height="41.62"/>
      </g>
    </g>
  </g>
</svg>
